<svg xmlns="http://www.w3.org/2000/svg" viewBox="0 0 100 100">
  <defs>
    <linearGradient id="grad1" x1="0%" y1="0%" x2="100%" y2="100%">
      <stop offset="0%" style="stop-color:#3B82F6;stop-opacity:1" />
      <stop offset="100%" style="stop-color:#6366F1;stop-opacity:1" />
    </linearGradient>
  </defs>
  <rect width="100" height="100" rx="20" fill="url(#grad1)"/>
  <path d="M30 25 L30 75 C30 75 35 70 45 70 C55 70 55 75 55 75 L55 25 C55 25 55 30 45 30 C35 30 30 25 30 25 Z" fill="white" opacity="0.9"/>
  <path d="M55 25 L55 75 C55 75 60 70 70 70 C80 70 80 75 80 75 L80 25 C80 25 80 30 70 30 C60 30 55 25 55 25 Z" fill="white" opacity="0.7"/>
</svg>
